<svg xmlns="http://www.w3.org/2000/svg" width="102" height="73" viewBox="0 0 102 73" fill="none"><path d="M61.9286 46.3047C61.9286 60.7952 48.0654 72.542 30.9643 72.542C13.8632 72.542 0 60.7952 0 46.3047C0 31.8142 13.8632 20.0674 30.9643 20.0674C48.0654 20.0674 61.9286 31.8142 61.9286 46.3047Z" fill="#19334A"></path><path d="M71.6429 26.7793C71.6429 41.2697 57.7797 53.0166 40.6786 53.0166C23.5775 53.0166 9.71429 41.2697 9.71429 26.7793C9.71429 12.2888 23.5775 0.541992 40.6786 0.541992C57.7797 0.541992 71.6429 12.2888 71.6429 26.7793Z" fill="#19334A"></path><path d="M102 37.7623C102 54.9487 87.0495 68.881 68.6071 68.881C50.1648 68.881 35.2143 54.9487 35.2143 37.7623C35.2143 20.576 50.1648 6.64369 68.6071 6.64369C87.0495 6.64369 102 20.576 102 37.7623Z" fill="#19334A"></path></svg>